<svg xmlns="http://www.w3.org/2000/svg" width="1440" height="900"><path d="M814,404L1056,546L974,311Z" fill="#e4559b" stroke="#e4559b" stroke-width="1.51"/><path d="M1056,546L1141,410L974,311Z" fill="#d64b94" stroke="#d64b94" stroke-width="1.51"/><path d="M814,404L874,706L1056,546Z" fill="#dc3697" stroke="#dc3697" stroke-width="1.51"/><path d="M1141,410L1168,230L974,311Z" fill="#d3649a" stroke="#d3649a" stroke-width="1.51"/><path d="M814,404L737,703L874,706Z" fill="#da3d95" stroke="#da3d95" stroke-width="1.51"/><path d="M974,311L678,275L814,404Z" fill="#f27ba9" stroke="#f27ba9" stroke-width="1.51"/><path d="M609,-129L678,275L974,311Z" fill="#fa9eb9" stroke="#fa9eb9" stroke-width="1.51"/><path d="M564,332L737,703L814,404Z" fill="#f465a1" stroke="#f465a1" stroke-width="1.51"/><path d="M678,275L564,332L814,404Z" fill="#f98aad" stroke="#f98aad" stroke-width="1.51"/><path d="M1056,546L1291,727L1141,410Z" fill="#b91f89" stroke="#b91f89" stroke-width="1.51"/><path d="M1141,410L1415,318L1168,230Z" fill="#bd5d98" stroke="#bd5d98" stroke-width="1.51"/><path d="M874,706L1291,727L1056,546Z" fill="#b20880" stroke="#b20880" stroke-width="1.51"/><path d="M919,913L1291,727L874,706Z" fill="#9c0a7e" stroke="#9c0a7e" stroke-width="1.51"/><path d="M737,703L919,913L874,706Z" fill="#b22889" stroke="#b22889" stroke-width="1.51"/><path d="M1487,551L1415,318L1141,410Z" fill="#ad3f8b" stroke="#ad3f8b" stroke-width="1.51"/><path d="M919,913L1313,854L1291,727Z" fill="#7d0076" stroke="#7d0076" stroke-width="1.51"/><path d="M1291,727L1487,551L1141,410Z" fill="#a51b86" stroke="#a51b86" stroke-width="1.51"/><path d="M1588,783L1487,551L1291,727Z" fill="#7a0074" stroke="#7a0074" stroke-width="1.51"/><path d="M678,275L407,192L564,332Z" fill="#fbaab8" stroke="#fbaab8" stroke-width="1.51"/><path d="M385,884L668,1033L737,703Z" fill="#a74b8e" stroke="#a74b8e" stroke-width="1.51"/><path d="M559,-32L407,192L678,275Z" fill="#fcbbc4" stroke="#fcbbc4" stroke-width="1.51"/><path d="M1168,230L1107,-140L974,311Z" fill="#d881aa" stroke="#d881aa" stroke-width="1.51"/><path d="M1145,-181L1107,-140L1168,230Z" fill="#d28cb6" stroke="#d28cb6" stroke-width="1.51"/><path d="M609,-129L559,-32L678,275Z" fill="#febdcc" stroke="#febdcc" stroke-width="1.51"/><path d="M1149,1227L1455,997L1313,854Z" fill="#5c006f" stroke="#5c006f" stroke-width="1.51"/><path d="M737,703L668,1033L919,913Z" fill="#a02e85" stroke="#a02e85" stroke-width="1.51"/><path d="M370,789L737,703L564,332Z" fill="#e367a0" stroke="#e367a0" stroke-width="1.51"/><path d="M1107,-140L609,-129L974,311Z" fill="#f49ec3" stroke="#f49ec3" stroke-width="1.51"/><path d="M1588,-82L1145,-181L1168,230Z" fill="#b984b3" stroke="#b984b3" stroke-width="1.51"/><path d="M166,553L370,789L564,332Z" fill="#ef85ac" stroke="#ef85ac" stroke-width="1.51"/><path d="M244,-198L222,299L407,192Z" fill="#fdd9d5" stroke="#fdd9d5" stroke-width="1.51"/><path d="M622,-224L609,-129L1107,-140Z" fill="#fcadc8" stroke="#fcadc8" stroke-width="1.51"/><path d="M370,789L385,884L737,703Z" fill="#b95e97" stroke="#b95e97" stroke-width="1.51"/><path d="M1487,551L1798,241L1415,318Z" fill="#a14a8d" stroke="#a14a8d" stroke-width="1.51"/><path d="M1313,854L1588,783L1291,727Z" fill="#680072" stroke="#680072" stroke-width="1.51"/><path d="M1455,997L1588,783L1313,854Z" fill="#4e006b" stroke="#4e006b" stroke-width="1.51"/><path d="M407,192L222,299L564,332Z" fill="#fcb9bc" stroke="#fcb9bc" stroke-width="1.51"/><path d="M370,789L297,867L385,884Z" fill="#af6999" stroke="#af6999" stroke-width="1.51"/><path d="M244,-198L407,192L559,-32Z" fill="#ffdad8" stroke="#ffdad8" stroke-width="1.51"/><path d="M1149,1227L1313,854L919,913Z" fill="#760073" stroke="#760073" stroke-width="1.51"/><path d="M609,-129L462,-206L559,-32Z" fill="#ffcbd4" stroke="#ffcbd4" stroke-width="1.51"/><path d="M1089,-289L622,-224L1107,-140Z" fill="#ef9cc1" stroke="#ef9cc1" stroke-width="1.51"/><path d="M1145,-181L1089,-289L1107,-140Z" fill="#d68eb7" stroke="#d68eb7" stroke-width="1.51"/><path d="M1264,-375L1089,-289L1145,-181Z" fill="#ce8bb6" stroke="#ce8bb6" stroke-width="1.51"/><path d="M1588,783L1679,688L1487,551Z" fill="#7d0074" stroke="#7d0074" stroke-width="1.51"/><path d="M1415,318L1588,-82L1168,230Z" fill="#aa70a0" stroke="#aa70a0" stroke-width="1.51"/><path d="M1768,918L1679,688L1588,783Z" fill="#600070" stroke="#600070" stroke-width="1.51"/><path d="M155,652L297,867L370,789Z" fill="#c175a3" stroke="#c175a3" stroke-width="1.51"/><path d="M571,1229L782,1251L668,1033Z" fill="#a03c88" stroke="#a03c88" stroke-width="1.51"/><path d="M222,299L166,553L564,332Z" fill="#fca9b9" stroke="#fca9b9" stroke-width="1.51"/><path d="M932,1338L1149,1227L919,913Z" fill="#870a7a" stroke="#870a7a" stroke-width="1.51"/><path d="M668,1033L782,1251L919,913Z" fill="#9b2b84" stroke="#9b2b84" stroke-width="1.51"/><path d="M571,1229L668,1033L385,884Z" fill="#a15290" stroke="#a15290" stroke-width="1.51"/><path d="M622,-224L462,-206L609,-129Z" fill="#ffc8d2" stroke="#ffc8d2" stroke-width="1.51"/><path d="M244,-198L462,-206L217,-318Z" fill="#ffe2dd" stroke="#ffe2dd" stroke-width="1.51"/><path d="M166,553L155,652L370,789Z" fill="#db81aa" stroke="#db81aa" stroke-width="1.51"/><path d="M1798,241L1588,-82L1415,318Z" fill="#a36d9e" stroke="#a36d9e" stroke-width="1.51"/><path d="M183,1243L571,1229L385,884Z" fill="#a36395" stroke="#a36395" stroke-width="1.51"/><path d="M1874,441L1798,241L1487,551Z" fill="#a13f89" stroke="#a13f89" stroke-width="1.51"/><path d="M1089,-289L1264,-375L622,-224Z" fill="#e897bd" stroke="#e897bd" stroke-width="1.51"/><path d="M1588,-82L1264,-375L1145,-181Z" fill="#b583b2" stroke="#b583b2" stroke-width="1.51"/><path d="M571,1229L932,1338L782,1251Z" fill="#9d2e85" stroke="#9d2e85" stroke-width="1.51"/><path d="M782,1251L932,1338L919,913Z" fill="#951c81" stroke="#951c81" stroke-width="1.51"/><path d="M1768,918L1874,441L1679,688Z" fill="#7b0074" stroke="#7b0074" stroke-width="1.51"/><path d="M1679,688L1874,441L1487,551Z" fill="#941881" stroke="#941881" stroke-width="1.51"/><path d="M1455,997L1768,918L1588,783Z" fill="#49006a" stroke="#49006a" stroke-width="1.51"/><path d="M1844,1191L1768,918L1455,997Z" fill="#49006a" stroke="#49006a" stroke-width="1.51"/><path d="M1374,1354L1455,997L1149,1227Z" fill="#59006e" stroke="#59006e" stroke-width="1.51"/><path d="M222,299L-18,317L166,553Z" fill="#feb8c8" stroke="#feb8c8" stroke-width="1.51"/><path d="M166,553L-116,688L155,652Z" fill="#e491b9" stroke="#e491b9" stroke-width="1.51"/><path d="M462,-206L244,-198L559,-32Z" fill="#ffd8d7" stroke="#ffd8d7" stroke-width="1.51"/><path d="M217,-318L462,-206L622,-224Z" fill="#fed7d7" stroke="#fed7d7" stroke-width="1.51"/><path d="M-48,-15L-18,317L222,299Z" fill="#feddd9" stroke="#feddd9" stroke-width="1.51"/><path d="M1874,441L1769,-110L1798,241Z" fill="#a3699a" stroke="#a3699a" stroke-width="1.51"/><path d="M1798,241L1769,-110L1588,-82Z" fill="#a57cac" stroke="#a57cac" stroke-width="1.51"/><path d="M1588,-82L1567,-387L1264,-375Z" fill="#a57dad" stroke="#a57dad" stroke-width="1.51"/><path d="M932,1338L1374,1354L1149,1227Z" fill="#720073" stroke="#720073" stroke-width="1.51"/><path d="M-48,-15L-55,327L-18,317Z" fill="#fee0db" stroke="#fee0db" stroke-width="1.51"/><path d="M-18,317L-55,327L166,553Z" fill="#ffbccc" stroke="#ffbccc" stroke-width="1.51"/><path d="M297,867L183,1243L385,884Z" fill="#a36a9b" stroke="#a36a9b" stroke-width="1.51"/><path d="M155,652L32,885L297,867Z" fill="#ba7baa" stroke="#ba7baa" stroke-width="1.51"/><path d="M-116,688L32,885L155,652Z" fill="#ca88b4" stroke="#ca88b4" stroke-width="1.51"/><path d="M1769,-110L1567,-387L1588,-82Z" fill="#a57dad" stroke="#a57dad" stroke-width="1.51"/><path d="M1264,-375L217,-318L622,-224Z" fill="#ffb5ca" stroke="#ffb5ca" stroke-width="1.51"/><path d="M244,-198L-48,-15L222,299Z" fill="#ffebe7" stroke="#ffebe7" stroke-width="1.51"/><path d="M-55,327L-116,688L166,553Z" fill="#f8a6c6" stroke="#f8a6c6" stroke-width="1.51"/><path d="M-55,327L-220,325L-116,688Z" fill="#ffb4ca" stroke="#ffb4ca" stroke-width="1.51"/><path d="M217,-318L-48,-15L244,-198Z" fill="#ffeeea" stroke="#ffeeea" stroke-width="1.51"/><path d="M-134,1272L183,1243L32,885Z" fill="#a57cac" stroke="#a57cac" stroke-width="1.51"/><path d="M32,885L183,1243L297,867Z" fill="#a372a4" stroke="#a372a4" stroke-width="1.51"/><path d="M571,1229L183,1243L932,1338Z" fill="#a14e8f" stroke="#a14e8f" stroke-width="1.51"/><path d="M1264,-375L-40,-424L217,-318Z" fill="#ffd2d6" stroke="#ffd2d6" stroke-width="1.51"/><path d="M1567,-387L1647,-433L1264,-375Z" fill="#a57dad" stroke="#a57dad" stroke-width="1.51"/><path d="M1769,-110L1647,-433L1567,-387Z" fill="#a57dad" stroke="#a57dad" stroke-width="1.51"/><path d="M1768,918L1844,1191L1874,441Z" fill="#54006d" stroke="#54006d" stroke-width="1.51"/><path d="M1374,1354L1844,1191L1455,997Z" fill="#49006a" stroke="#49006a" stroke-width="1.51"/><path d="M-48,-15L-220,325L-55,327Z" fill="#fedfdb" stroke="#fedfdb" stroke-width="1.51"/><path d="M-48,-15L-317,298L-220,325Z" fill="#fee0dc" stroke="#fee0dc" stroke-width="1.51"/><path d="M-220,325L-372,802L-116,688Z" fill="#eb99bf" stroke="#eb99bf" stroke-width="1.51"/><path d="M-48,-15L-280,-116L-317,298Z" fill="#fff1ed" stroke="#fff1ed" stroke-width="1.51"/><path d="M217,-318L-40,-424L-48,-15Z" fill="#fff4f0" stroke="#fff4f0" stroke-width="1.51"/><path d="M1647,-433L-40,-424L1264,-375Z" fill="#ec9ac0" stroke="#ec9ac0" stroke-width="1.51"/><path d="M-40,-424L-208,-235L-48,-15Z" fill="#fff7f3" stroke="#fff7f3" stroke-width="1.51"/><path d="M-208,-235L-280,-116L-48,-15Z" fill="#fff7f3" stroke="#fff7f3" stroke-width="1.51"/><path d="M-274,1070L-134,1272L32,885Z" fill="#a57dad" stroke="#a57dad" stroke-width="1.51"/><path d="M183,1243L-134,1272L932,1338Z" fill="#a36798" stroke="#a36798" stroke-width="1.51"/><path d="M-274,1070L32,885L-116,688Z" fill="#a97fae" stroke="#a97fae" stroke-width="1.51"/><path d="M-425,1181L-372,802L-317,298Z" fill="#c688b5" stroke="#c688b5" stroke-width="1.51"/><path d="M-317,298L-372,802L-220,325Z" fill="#fdafc8" stroke="#fdafc8" stroke-width="1.51"/><path d="M-372,802L-274,1070L-116,688Z" fill="#b081b0" stroke="#b081b0" stroke-width="1.51"/><path d="M-372,802L-425,1181L-274,1070Z" fill="#a57dad" stroke="#a57dad" stroke-width="1.51"/><path d="M-274,1070L-425,1181L-134,1272Z" fill="#a57dad" stroke="#a57dad" stroke-width="1.51"/><path d="M-280,-116L-425,1181L-317,298Z" fill="#ffb2c9" stroke="#ffb2c9" stroke-width="1.51"/></svg>